/* XPM */
static char * 0_challenger_logo_xpm[] = {
"64 16 64 1",
" 	c #716F70",
".	c #514E4F",
"+	c #E8E7E8",
"@	c #D8D8D8",
"#	c #C8C7C7",
"$	c #242021",
"%	c #B8B7B8",
"&	c #171314",
"*	c #F3F3F3",
"=	c #A7A6A7",
"-	c #989797",
";	c #888687",
">	c #383536",
",	c #F9F9F9",
"'	c #231F20",
")	c #1E1B1C",
"!	c #FCFCFC",
"~	c #FFFFFF",
"{	c #2D292A",
"]	c #272425",
"^	c #2F2C2D",
"/	c #3E3C3D",
"(	c #5C595A",
"_	c #8D8B8C",
":	c #656364",
"<	c #7B797A",
"[	c #C2C1C1",
"}	c #454343",
"|	c #A2A1A2",
"1	c #333031",
"2	c #ADACAC",
"3	c #929191",
"4	c #2A2728",
"5	c #B3B1B2",
"6	c #9D9C9D",
"7	c #828181",
"8	c #BDBCBC",
"9	c #CCCCCC",
"0	c #FEFEFE",
"a	c #FFFEFF",
"b	c #FFFEFE",
"c	c #F8F7F8",
"d	c #DEDDDE",
"e	c #FEFFFE",
"f	c #F0EFF0",
"g	c #E3E2E2",
"h	c #FDFEFE",
"i	c #FEFFFF",
"j	c #D3D2D2",
"k	c #F6F6F6",
"l	c #F7F7F7",
"m	c #EFEFEF",
"n	c #FEFDFE",
"o	c #FCFBFB",
"p	c #F8F8F8",
"q	c #FEFEFF",
"r	c #FBFBFB",
"s	c #CFCFCF",
"t	c #FCFBFC",
"u	c #FDFDFD",
"v	c #FDFEFD",
"w	c #F7F8F8",
"x	c #EDECEC",
"y	c #F1F0F1",
"~~~~~~~~~~~~~*[3;m~~~~~~~~~~~~~~~~~~~~~~~~~~~~~~~~~~~~~~~~~~~~~~",
"~~~~~~~~~~~+6(59'9~k8~~~~~~~~~0ss~,m~~~~~~~~~~~~~~~~~~~~~~~~~~~~",
"~~~~~~~~~m6.[,~5^xp 7~~~~~~~~l-7s@ |~~~~~~~~~~~~~~~~~~~~~~~~~~~~",
"~~~~~~~,51=k~~%$#u_>+~~~~~~~p-j28[-y~~~~~~~~~~~~~~~~~~~~~~~~~~~~",
"~~~~~~j( d~~~[$8~%$9~~~~~~~!|j|59_g~~~~~~~~~~~~~~~~~~~~~~~~~~~~~",
"~~~~y3^%r~~~~om~@$5~~~~~~~~2#6[%7+~~~~~~~~~~~~~~~~~~~~~~~~~~~~~~",
"~~~#}7x~~~~~~~~m}37%~~@7(~[:|j(<g9p~~~~~~~~~~~~~~~~~~~~~~~~~~~~~",
"~*_$80~~~~~~~~r<. $j~5_=5@]2+};@ 3#g9x8-#~*jd~~08<6u[32@d~~~~~~~",
"y:$9~~~~~~~~~~|'52<,669<j>5x:=l<5;#.1/..x2 [8706272_/'9kp~~~~~~~",
"-$]g+++@9%230#$9g$#3$=$<{$-/3,%/62:5$s.#;_@6$%%$ [ %:9~~~~~~~~~~",
"8]$$$$$$$.7sd{#~|$ (];$<5$=;$] $$_+;9j$($46<4}.$(:j<$ 77-=22%[9j",
"~kgjj@+xu~~~+d~~+@0g+,jrmd~y9m,9d~~~~fjpxx;5gg*9j,u99s@g+++mr0~~",
"~~~~~~~~~~~~~~~~~~~~~~~~~~~~~~~~~~~~~~~~k<8~~~~~~~~~~~~~~~~~~~~~",
"~~~~~~~~~~~~~~~~~~~~~~~~~~~~~~~~~~~~~~~y [~~~~~~~~~~~~~~~~~~~~~~",
"~~~~~~~~~~~~~~~~~~~~~~~~~~~~~~~~~~~~~~+:#~~~~~~~~~~~~~~~~~~~~~~~",
"~~~~~~~~~~~~~~~~~~~~~~~~~~~~~~~~~~~~~~59~~~~~~~~~~~~~~~~~~~~~~~~"};
